# xmcd
#
# Track frame offsets: 
#        150
#        8997
#        22505
#        35707
#        45485
#        64527
#        82095
#        98245
#        114322
#        127842
#        142005
#        158312
#        178072
#        189787
#        202580
#
# Disc length: 3079 seconds
#
# Revision: 5
# Processed by: cddbd v1.5.2PL0 Copyright (c) Steve Scherf et al.
# Submitted via: ExactAudioCopy v0.95a4
#
DISCID=ab0c050f
DTITLE=Ray Charles - Hit The Road Jack (The Best Of)
DYEAR=1994
DGENRE=Jazz
TTITLE0=Hit The Road Jack
TTITLE1=Eleonor Rigby
TTITLE2=Take These Chains From My Heart
TTITLE3=Busted
TTITLE4=I Can't Stop Loving You
TTITLE5=Ruby
TTITLE6=Without Love (There Is Nothing)
TTITLE7=Your Cheating Heart
TTITLE8=You Are My Sunshine
TTITLE9=One Mint Julep
TTITLE10=Georgia On My Mind
TTITLE11=That Lucky Old Sun
TTITLE12=In The Heat Of The Night
TTITLE13=Unchain My Heart
TTITLE14=Makin' Whoopee Part 1 and 2
EXTD=Year: 1994
EXTT0=
EXTT1=
EXTT2=
EXTT3=
EXTT4=
EXTT5=
EXTT6=
EXTT7=
EXTT8=
EXTT9=
EXTT10=
EXTT11=
EXTT12=
EXTT13=
EXTT14=
PLAYORDER=
